{"title":"666.Park.Avenue.S01E04.1080p.WEB-DL.DD5.1.H.264-ECI","uid":7752715,"size":1762379201,"categoryP":"video","categoryS":"hd___tv_shows","magnet":"?xt=urn:btih:3d1d11a7e4e4ef43e6b17572b7a6c97041d7a653&amp;dn=666.Park.Avenue.S01E04.1080p.WEB-DL.DD5.1.H.264-ECI&amp;tr=udp%3A%2F%2Ftracker.openbittorrent.com%3A80&amp;tr=udp%3A%2F%2Fopen.demonii.com%3A1337&amp;tr=udp%3A%2F%2Ftracker.coppersurfer.tk%3A6969&amp;tr=udp%3A%2F%2Fexodus.desync.com%3A6969","seeders":0,"leechers":0,"uploader":"sceneline","files":4,"time":1351007414,"description":"- &lt;a href=&quot;\nhttp://www.Speed.Cd&quot; rel=&quot;nofollow&quot; target=&quot;_NEW&quot;&gt;\nhttp://www.Speed.Cd&lt;/a&gt;\n &lt;a href=&quot;\nhttp://www.Speed.Cd&quot; rel=&quot;nofollow&quot; target=&quot;_NEW&quot;&gt;\nhttp://www.Speed.Cd&lt;/a&gt;       the fast  and The Hottest Private Tracker on the net\n\nPlease Seed back to make the speed Faster!!\n ............ NFO .............\n-General\nUnique ID                                : 199802226749494458215650702308162819874 (0x965082575729C1ED8A6A9F7F11CE5722)\nComplete name                            : 666.Park.Avenue.S01E04.Hero.Complex.1080p.WEB-DL.DD5.1.H.264-ECI.mkv\nFormat                                   : Matroska\nFormat version                           : Version 2\nFile size                                : 1.64 GiB\nDuration                                 : 42mn 51s\nOverall bit rate                         : 5 483 Kbps\nEncoded date                             : UTC 2012-10-22 16:46:57\nWriting application                      : mkvmerge v5.8.0 ('No Sleep / Pillow') built on Sep  2 2012 15:37:04\nWriting library                          : libebml v1.2.3 + libmatroska v1.3.0\n\nVideo\nID                                       : 1\nFormat                                   : AVC\nFormat/Info                              : Advanced Video Codec\nFormat profile                           : &lt;a class=&quot;__cf_email__&quot; href=&quot;/cdn-cgi/l/email-protection&quot; data-cfemail=&quot;9ed6f7f9f6ded2aab0ae&quot;&gt;[email&amp;#160;protected]&lt;/a&gt;&lt;script cf-hash='f9e31' type=&quot;text/javascript&quot;&gt;\n/* &lt;![CDATA[ */!function(){try{var t=&quot;currentScript&quot;in document?document.currentScript:function(){for(var t=document.getElementsByTagName(&quot;script&quot;),e=t.length;e--;)if(t[e].getAttribute(&quot;cf-hash&quot;))return t[e]}();if(t&amp;&amp;t.previousSibling){var e,r,n,i,c=t.previousSibling,a=c.getAttribute(&quot;data-cfemail&quot;);if(a){for(e=&quot;&quot;,r=parseInt(a.substr(0,2),16),n=2;a.length-n;n+=2)i=parseInt(a.substr(n,2),16)^r,e+=String.fromCharCode(i);e=document.createTextNode(e),c.parentNode.replaceChild(e,c)}}}catch(u){}}();/* ]]&gt; */&lt;/script&gt;\nFormat settings, CABAC                   : Yes\nFormat settings, ReFrames                : 4 frames\nCodec ID                                 : V_MPEG4/ISO/AVC\nDuration                                 : 42mn 51s\nBit rate                                 : 4 990 Kbps\nWidth                                    : 1 920 pixels\nHeight                                   : 1 080 pixels\nDisplay aspect ratio                     : 16:9\nFrame rate mode                          : Constant\nFrame rate                               : 23.976 fps\nColor space                              : YUV\nChroma subsampling                       : 4:2:0\nBit depth                                : 8 bits\nScan type                                : Progressive\nBits/(Pixel*Frame)                       : 0.100\nStream size                              : 1.49 GiB (91%)\nLanguage                                 : English\nDefault                                  : Yes\nForced                                   : No\nColor primaries                          : BT.709\nTransfer characteristics                 : BT.709\nMatrix coefficients                      : BT.709\n\nAudio\nID                                       : 2\nFormat                                   : AC-3\nFormat/Info                              : Audio Coding 3\nMode extension                           : CM (complete main)\nFormat settings, Endianness              : Big\nCodec ID                                 : A_AC3\nDuration                                 : 42mn 51s\nBit rate mode                            : Constant\nBit rate                                 : 384 Kbps\nChannel(s)                               : 6 channels\nChannel positions                        : Front: L C R, Side: L R, LFE\nSampling rate                            : 48.0 KHz\nBit depth                                : 16 bits\nCompression mode                         : Lossy\nStream size                              : 118 MiB (7%)\nLanguage                                 : English\nDefault                                  : Yes\nForced                                   : No","torrent":{"xt":"urn:btih:3d1d11a7e4e4ef43e6b17572b7a6c97041d7a653","amp;dn":"666.Park.Avenue.S01E04.1080p.WEB-DL.DD5.1.H.264-ECI","amp;tr":["udp%3A%2F%2Ftracker.openbittorrent.com%3A80","udp%3A%2F%2Fopen.demonii.com%3A1337","udp%3A%2F%2Ftracker.coppersurfer.tk%3A6969","udp%3A%2F%2Fexodus.desync.com%3A6969"],"infoHash":"3d1d11a7e4e4ef43e6b17572b7a6c97041d7a653","infoHashBuffer":{"type":"Buffer","data":[61,29,17,167,228,228,239,67,230,177,117,114,183,166,201,112,65,215,166,83]},"announce":[],"urlList":[]}}